<svg version="1.1" id="Calque_1" xmlns:mydata="http://www.w3.org/2000/svg"
	 xmlns="http://www.w3.org/2000/svg" xmlns:xlink="http://www.w3.org/1999/xlink" x="0px" y="0px" width="78.833px"
	 height="69.833px" viewBox="-802.667 314 78.833 69.833" enable-background="new -802.667 314 78.833 69.833" xml:space="preserve"
	>
<rect x="-92.5" fill="#D50032" width="483" height="272"/>
<g>
	<g>
		<g>
			<path fill="#FFFFFF" d="M95.879,225.633c0,1.125-0.405,2.012-1.215,2.66c-0.81,0.648-1.937,0.972-3.38,0.972
				c-1.33,0-2.507-0.25-3.53-0.75v-2.455c0.841,0.375,1.553,0.639,2.136,0.793s1.115,0.23,1.599,0.23
				c0.58,0,1.024-0.111,1.334-0.333c0.31-0.222,0.465-0.551,0.465-0.989c0-0.244-0.068-0.462-0.205-0.652
				c-0.136-0.19-0.337-0.374-0.601-0.55c-0.264-0.176-0.803-0.458-1.616-0.844c-0.762-0.358-1.333-0.702-1.714-1.032
				c-0.381-0.33-0.685-0.713-0.912-1.151c-0.227-0.438-0.341-0.949-0.341-1.535c0-1.103,0.374-1.969,1.121-2.6
				s1.78-0.946,3.099-0.946c0.648,0,1.266,0.077,1.854,0.23c0.588,0.153,1.204,0.369,1.846,0.648l-0.853,2.055
				c-0.665-0.273-1.215-0.463-1.65-0.571c-0.435-0.108-0.863-0.162-1.283-0.162c-0.5,0-0.884,0.117-1.151,0.35
				c-0.267,0.233-0.401,0.537-0.401,0.912c0,0.233,0.054,0.436,0.162,0.61s0.28,0.341,0.516,0.503
				c0.236,0.162,0.794,0.453,1.675,0.874c1.165,0.557,1.964,1.115,2.396,1.675C95.663,224.134,95.879,224.82,95.879,225.633z"/>
			<path fill="#FFFFFF" d="M115.357,229.094h-2.643v-10.265h-3.385v-2.2h9.412v2.2h-3.385L115.357,229.094z"/>
			<path fill="#FFFFFF" d="M144.421,216.63v8.065c0,0.921-0.206,1.728-0.618,2.421s-1.007,1.225-1.786,1.594
				c-0.779,0.369-1.699,0.554-2.762,0.554c-1.603,0-2.848-0.411-3.734-1.232c-0.887-0.821-1.33-1.945-1.33-3.372v-8.031h2.634v7.63
				c0,0.961,0.193,1.665,0.58,2.114c0.386,0.449,1.026,0.674,1.918,0.674c0.864,0,1.491-0.226,1.88-0.678
				c0.389-0.452,0.584-1.161,0.584-2.127v-7.613L144.421,216.63z"/>
			<path fill="#FFFFFF" d="M172.529,222.743c0,2.052-0.584,3.623-1.752,4.715s-2.855,1.637-5.06,1.637h-3.53V216.63h3.913
				c2.035,0,3.615,0.537,4.74,1.611C171.967,219.315,172.529,220.816,172.529,222.743L172.529,222.743z M169.784,222.811
				c0-2.677-1.182-4.016-3.547-4.016h-1.407v8.116h1.134C168.511,226.912,169.784,225.545,169.784,222.811z"/>
			<path fill="#FFFFFF" d="M192.04,229.094h-5.67v-1.501l1.518-0.699v-8.065l-1.518-0.699v-1.501h5.67v1.501l-1.518,0.699v8.065
				l1.518,0.699V229.094z"/>
			<path fill="#FFFFFF" d="M218.246,222.845c0,2.063-0.512,3.649-1.535,4.757c-1.023,1.108-2.489,1.663-4.399,1.663
				c-1.91,0-3.376-0.554-4.399-1.663c-1.023-1.108-1.535-2.7-1.535-4.774s0.513-3.659,1.539-4.753
				c1.026-1.094,2.497-1.641,4.412-1.641s3.38,0.551,4.395,1.654C217.739,219.19,218.246,220.776,218.246,222.845L218.246,222.845z
				 M209.149,222.845c0,1.393,0.264,2.441,0.793,3.146s1.319,1.057,2.37,1.057c2.109,0,3.163-1.401,3.163-4.203
				c0-2.808-1.049-4.212-3.146-4.212c-1.051,0-1.844,0.354-2.379,1.061C209.417,220.402,209.149,221.452,209.149,222.845z"/>
		</g>
		<g>
			<path fill="#FFFFFF" d="M86.91,210.964h-7.254v-32.331c1.269-3.808,3.687-6.641,7.254-8.501V210.964z M79.656,162.746h7.254
				v5.186c-2.932,1.291-5.35,3.26-7.254,5.908v0.23V162.746z"/>
			<path fill="#FFFFFF" d="M112.479,162.746v7.32l-2.166,5.416c-1.488-2.407-3.37-4.223-5.646-5.449l-13.425,0.033v-7.32H112.479z
				 M99.842,201.806h-7.878l11.981-29.968l0.722,0.394c2.101,1.335,3.698,3.129,4.792,5.383L99.842,201.806z M112.479,203.742v7.221
				H91.242v-7.221H112.479z"/>
			<path fill="#FFFFFF" d="M131.977,173.578c0-1.16-0.405-2.144-1.214-2.954c-0.81-0.81-1.794-1.214-2.954-1.214
				c-1.138,0-2.123,0.405-2.954,1.214c-0.81,0.81-1.214,1.794-1.214,2.954v7.943c-2.867,1.269-5.23,3.173-7.09,5.711v-13.523
				c0-3.217,1.127-5.941,3.381-8.173c2.232-2.254,4.934-3.381,8.107-3.381c3.195,0,5.908,1.127,8.14,3.381
				c2.254,2.254,3.381,4.978,3.381,8.173v26.292c0,0.744-0.066,1.455-0.197,2.134h-8.009c0.416-0.656,0.624-1.39,0.624-2.199
				L131.977,173.578z M138.869,204.071c-0.569,1.51-1.466,2.878-2.692,4.103c-2.254,2.254-4.967,3.381-8.14,3.381
				c-3.217,0-5.941-1.127-8.173-3.381c-2.21-2.254-3.315-4.978-3.315-8.173v-8.239c1.291-3.567,3.654-6.247,7.09-8.042v16.215
				c0,1.138,0.405,2.112,1.214,2.921c0.788,0.766,1.707,1.171,2.757,1.214h0.033h0.164h0.197L138.869,204.071z"/>
			<path fill="#FFFFFF" d="M159.68,174.365c0-2.801-1.39-4.201-4.169-4.201h-4.398c-2.932,1.291-5.35,3.271-7.254,5.941v0.197
				v-13.556h11.488c4.048,0,7.024,1.116,8.928,3.348c1.663,1.948,2.495,4.672,2.495,8.173v6.991c0,3.414-1.302,6.302-3.906,8.665
				l1.969,7.681c-2.429-2.057-5.372-3.654-8.83-4.792h-4.891v18.151h-7.254v-30.099c1.291-3.786,3.709-6.619,7.254-8.501v13.228
				h4.398c1.16,0,2.144-0.405,2.954-1.214c0.81-0.81,1.214-1.794,1.214-2.954L159.68,174.365z M168.247,210.964h-7.812l-3.84-15.722
				c4.924,2.035,8.239,5.044,9.946,9.026L168.247,210.964z"/>
			<path fill="#FFFFFF" d="M180.588,199.836l-1.772,11.127h-7.582l4.431-26.16c1.466-3.873,4.256-6.762,8.37-8.665l-2.33,16.609
				h5.383l-2.724-18.939c-3.02,1.116-5.569,2.757-7.648,4.924l2.724-15.985h9.978l7.221,43.097
				c-2.341-2.407-5.164-4.409-8.468-6.007H180.588z M189.877,210.964l-1.346-8.731c4.201,2.341,7.188,5.252,8.961,8.731H189.877z"/>
			<path fill="#FFFFFF" d="M209.44,162.713l9.65,32.331v0.033l0,0l0,0l0,0c2.888-3.107,5.306-6.652,7.254-10.635v26.521h-7.812
				l-9.978-30.887l0,0c-2.932,2.976-5.361,6.39-7.287,10.241v-27.605L209.44,162.713z M219.09,162.713h7.254v16.642
				c-1.4,4.705-3.818,9.059-7.254,13.064V162.713z M208.554,210.964h-7.287v-15.23c1.357-4.464,3.786-8.633,7.287-12.506V210.964z"
				/>
		</g>
		<g>
			<path fill="#042335" d="M-697.455,378.966c0,1.125-0.405,2.012-1.215,2.66s-1.937,0.972-3.38,0.972c-1.33,0-2.507-0.25-3.53-0.75
				v-2.455c0.841,0.375,1.553,0.639,2.136,0.793c0.583,0.153,1.115,0.23,1.599,0.23c0.58,0,1.024-0.111,1.334-0.333
				c0.31-0.222,0.465-0.551,0.465-0.989c0-0.244-0.068-0.462-0.205-0.652s-0.337-0.374-0.601-0.55
				c-0.264-0.176-0.803-0.458-1.616-0.844c-0.762-0.358-1.333-0.702-1.714-1.032c-0.381-0.33-0.685-0.713-0.912-1.151
				c-0.227-0.438-0.341-0.949-0.341-1.535c0-1.103,0.374-1.969,1.121-2.6c0.747-0.631,1.78-0.946,3.099-0.946
				c0.648,0,1.266,0.077,1.854,0.23c0.588,0.153,1.203,0.369,1.846,0.648l-0.853,2.055c-0.665-0.273-1.215-0.463-1.65-0.571
				s-0.862-0.162-1.283-0.162c-0.5,0-0.884,0.117-1.151,0.35c-0.267,0.233-0.401,0.537-0.401,0.912c0,0.233,0.054,0.436,0.162,0.61
				c0.108,0.173,0.28,0.341,0.516,0.503s0.794,0.453,1.675,0.874c1.165,0.557,1.964,1.115,2.396,1.675
				S-697.455,378.153-697.455,378.966z"/>
			<path fill="#042335" d="M-677.976,382.428h-2.643v-10.265h-3.385v-2.2h9.412v2.2h-3.385V382.428z"/>
			<path fill="#042335" d="M-648.912,369.963v8.065c0,0.921-0.206,1.728-0.618,2.421c-0.412,0.693-1.007,1.225-1.786,1.594
				c-0.779,0.369-1.699,0.554-2.762,0.554c-1.603,0-2.848-0.411-3.734-1.232c-0.887-0.821-1.33-1.945-1.33-3.372v-8.031h2.634v7.63
				c0,0.961,0.193,1.665,0.58,2.114c0.387,0.449,1.026,0.674,1.918,0.674c0.864,0,1.491-0.226,1.88-0.678s0.584-1.161,0.584-2.127
				v-7.613H-648.912z"/>
			<path fill="#042335" d="M-620.804,376.076c0,2.052-0.584,3.623-1.752,4.715c-1.168,1.091-2.855,1.637-5.06,1.637h-3.53v-12.464
				h3.913c2.035,0,3.615,0.537,4.74,1.611S-620.804,374.149-620.804,376.076L-620.804,376.076z M-623.549,376.144
				c0-2.677-1.182-4.016-3.547-4.016h-1.407v8.116h1.134C-624.823,380.245-623.549,378.878-623.549,376.144z"/>
			<path fill="#042335" d="M-601.294,382.428h-5.67v-1.5l1.518-0.699v-8.065l-1.518-0.699v-1.5h5.67v1.5l-1.518,0.699v8.065
				l1.518,0.699V382.428z"/>
			<path fill="#042335" d="M-575.087,376.178c0,2.063-0.512,3.649-1.535,4.757s-2.49,1.663-4.399,1.663s-3.376-0.554-4.399-1.663
				c-1.023-1.108-1.535-2.7-1.535-4.774c0-2.075,0.513-3.659,1.539-4.753c1.026-1.094,2.497-1.641,4.412-1.641
				s3.38,0.551,4.395,1.654C-575.594,372.524-575.087,374.109-575.087,376.178L-575.087,376.178z M-584.184,376.178
				c0,1.392,0.264,2.441,0.793,3.146c0.529,0.705,1.319,1.057,2.37,1.057c2.109,0,3.163-1.401,3.163-4.203
				c0-2.808-1.049-4.212-3.146-4.212c-1.051,0-1.844,0.354-2.379,1.061C-583.917,373.736-584.184,374.786-584.184,376.178z"/>
		</g>
		<g>
			<path fill="#042335" d="M-706.424,364.297h-7.254v-32.331c1.269-3.808,3.687-6.641,7.254-8.501V364.297z M-713.678,316.079h7.254
				v5.186c-2.932,1.291-5.35,3.26-7.254,5.908v0.23V316.079z"/>
			<path fill="#042335" d="M-680.854,316.079v7.32l-2.166,5.416c-1.488-2.407-3.37-4.223-5.646-5.449l-13.425,0.033v-7.32H-680.854z
				 M-693.491,355.139h-7.878l11.981-29.968l0.722,0.394c2.101,1.335,3.698,3.129,4.792,5.383L-693.491,355.139z M-680.854,357.076
				v7.221h-21.237v-7.221H-680.854z"/>
			<path fill="#042335" d="M-661.357,326.911c0-1.16-0.405-2.144-1.214-2.954c-0.81-0.81-1.794-1.214-2.954-1.214
				c-1.138,0-2.123,0.405-2.954,1.214c-0.81,0.81-1.214,1.794-1.214,2.954v7.943c-2.867,1.269-5.23,3.173-7.09,5.711v-13.523
				c0-3.217,1.127-5.941,3.381-8.173c2.232-2.254,4.935-3.381,8.107-3.381c3.195,0,5.908,1.127,8.14,3.381
				c2.254,2.254,3.381,4.978,3.381,8.173v26.292c0,0.744-0.066,1.455-0.197,2.134h-8.009c0.416-0.656,0.624-1.39,0.624-2.199
				V326.911z M-654.464,357.404c-0.569,1.51-1.466,2.878-2.692,4.103c-2.254,2.254-4.967,3.381-8.14,3.381
				c-3.217,0-5.941-1.127-8.173-3.381c-2.21-2.254-3.315-4.978-3.315-8.173v-8.239c1.291-3.567,3.654-6.247,7.09-8.042v16.215
				c0,1.138,0.405,2.112,1.214,2.921c0.788,0.766,1.707,1.171,2.757,1.214h0.033h0.164h0.197L-654.464,357.404z"/>
			<path fill="#042335" d="M-633.654,327.699c0-2.801-1.39-4.201-4.169-4.201h-4.398c-2.932,1.291-5.35,3.271-7.254,5.941v0.197
				v-13.556h11.488c4.048,0,7.024,1.116,8.928,3.348c1.663,1.948,2.495,4.672,2.495,8.173v6.991c0,3.414-1.302,6.302-3.906,8.665
				l1.969,7.681c-2.429-2.057-5.372-3.654-8.83-4.792h-4.891v18.151h-7.254v-30.099c1.291-3.786,3.709-6.619,7.254-8.501v13.228
				h4.398c1.16,0,2.144-0.405,2.954-1.214c0.81-0.81,1.214-1.794,1.214-2.954V327.699z M-625.087,364.297h-7.812l-3.84-15.723
				c4.924,2.035,8.239,5.044,9.946,9.026L-625.087,364.297z"/>
			<path fill="#042335" d="M-612.745,353.17l-1.772,11.127h-7.582l4.431-26.16c1.466-3.873,4.256-6.762,8.37-8.665l-2.33,16.609
				h5.383l-2.724-18.939c-3.02,1.116-5.569,2.757-7.648,4.924l2.724-15.985h9.978l7.221,43.097
				c-2.341-2.407-5.164-4.409-8.468-6.007H-612.745z M-603.456,364.297l-1.346-8.731c4.201,2.341,7.188,5.252,8.961,8.731H-603.456z
				"/>
			<path fill="#042335" d="M-583.893,316.046l9.65,32.331v0.033l0,0l0,0l0,0c2.888-3.107,5.306-6.652,7.254-10.635v26.521h-7.812
				l-9.978-30.887l0,0c-2.932,2.976-5.361,6.39-7.287,10.241v-27.605L-583.893,316.046z M-574.243,316.046h7.254v16.642
				c-1.401,4.705-3.818,9.059-7.254,13.064V316.046z M-584.78,364.297h-7.287v-15.23c1.357-4.464,3.786-8.633,7.287-12.506V364.297z
				"/>
		</g>
		<g>
			<g>
				<path fill="#042335" d="M-775.786,333.229c-2.21,0-4.19,1.406-4.19,4.491v3.067c0,2.289,1.043,3.353,3.039,3.353h2.516
					c2.381,0,3.998,1.934,3.998,3.994v3.187c0,2.059-1.618,3.993-3.998,3.993h-2.516c-1.996,0-3.039,1.064-3.039,3.354v1.491
					c0,3.086,1.98,4.754,4.19,4.754h2.746c2.055,0,3.112,0.88,3.112,2.76v1.874c0.113,2.9,2.034,4.229,4.177,4.229h2.747
					c2.055,0,3.112,0.881,3.112,2.76v3.789c0,1.409-0.784,2.466-2.487,2.466h-5.198c-1.685,0-2.402-0.78-2.402-2.539v-2.221
					c0-2.004-1.534-3.884-3.807-3.984l0.019-0.022h-3.846c-1.684,0-2.402-0.78-2.402-2.539v-2.318c0-2.059-1.618-3.994-3.997-3.994
					h-2.516c-1.996,0-3.039-1.064-3.039-3.354v-2.202c0-3.087-1.979-4.044-4.188-4.044h-3.701c-2.054,0-3.112-0.88-3.112-2.76
					v-6.176c0-1.879,1.057-2.759,3.112-2.759h3.701c2.209,0,4.188-1.669,4.188-4.756v-2.803c0-2.29,1.041-3.354,3.039-3.354h2.516
					c2.381,0,3.997-1.934,3.997-3.993v-2.29c0-1.759,0.717-2.539,2.402-2.539h3.828c2.273-0.101,3.807-1.98,3.807-3.984v-2.222
					c0-1.759,0.717-2.539,2.402-2.539h5.199c1.703,0,2.486,1.057,2.486,2.466v3.789c0,1.879-1.056,2.759-3.113,2.759h-2.746
					c-2.149,0-4.076,1.336-4.179,4.252v1.802c0,1.879-1.057,2.759-3.112,2.759L-775.786,333.229z"/>
				<path fill="#042335" d="M-758.126,348.906c0-3.086-1.98-4.756-4.189-4.753h-3.699c-2.057,0-3.113-0.881-3.113-2.76v-5.696
					c0-1.41,0.784-2.466,2.486-2.466h3.09c2.937,0,4.466-0.881,4.466-3.64v-1.639c0-2.004,1.086-3.176,3.307-3.176h4.553
					c2.175,0,3.476,0.99,3.476,3.393v1.384c0,2.116,1.451,3.441,4.473,3.441h2.676c1.585,0,2.819,0.705,2.819,2.76v3.878
					c0,1.644-0.529,3.112-2.701,3.112h-4.343c-1.645,0-2.995-1.232-2.995-3.112v-1.97c0-2.383-1.331-3.55-3.884-3.55h-2.916
					c-2.426,0-3.465,1.38-3.465,3.67v2.116c0,2.059,1.618,3.992,3.997,3.992h2.516c1.996,0,3.039,1.065,3.039,3.355v1.818
					c0,3.086,1.98,4.756,4.188,4.756h3.701c2.054,0,3.112,0.881,3.112,2.759v5.696c0,1.409-0.784,2.466-2.487,2.466h-3.089
					c-2.937,0-4.466,0.88-4.466,3.64v1.639c0,2.004-1.086,3.176-3.307,3.176h-4.486c-2.175,0-3.543-0.911-3.543-3.316v-1.461
					c0-2.116-1.451-3.441-4.473-3.441h-2.676c-1.585,0-2.819-0.704-2.819-2.76v-3.878c0-1.645,0.529-3.113,2.701-3.113h4.344
					c1.645,0,2.995,1.234,2.995,3.113v1.97c0,2.383,1.33,3.55,3.882,3.55h2.917c2.426,0,3.464-1.38,3.464-3.671v-2.116
					c0-2.059-1.618-3.993-3.997-3.993h-2.516c-1.996,0-3.038-1.065-3.038-3.355V348.906z"/>
				<path opacity="0.2" fill="#FFFFFF" d="M-103.908,114.123c0-22.967-14.734-35.392-31.178-35.37h-27.527
					c-15.306,0-23.166-6.557-23.166-20.543V15.821c0-10.491,5.834-18.356,18.504-18.356h22.996c21.854,0,33.238-6.557,33.238-27.091
					v-12.196c0-14.916,8.08-23.639,24.608-23.639h33.886c16.185,0,25.869,7.365,25.869,25.251v10.297
					c0,15.746,10.8,25.611,33.285,25.611h19.912c11.799,0,20.979,5.246,20.979,20.539v28.864c0,12.234-3.934,23.157-20.103,23.157
					H-4.929c-12.239,0-22.286-9.171-22.286-23.157V30.437c0-17.738-9.908-26.419-28.902-26.419h-21.702
					c-18.055,0-25.789,10.271-25.789,27.316v15.75c0,15.322,12.044,29.71,29.748,29.71h18.728c14.857,0,22.616,7.924,22.616,24.968
					v13.533c0,22.967,14.734,35.392,31.17,35.392h27.54c15.289,0,23.157,6.557,23.157,20.534v42.393
					c0,10.487-5.834,18.356-18.512,18.356H7.851c-21.854,0-33.238,6.553-33.238,27.091v12.2c0,14.912-8.08,23.635-24.608,23.635
					h-33.386c-16.19,0-26.368-6.781-26.368-24.676v-10.876c0-15.746-10.8-25.611-33.285-25.611h-19.912
					c-11.799,0-20.979-5.241-20.979-20.543v-28.864c0-12.243,3.934-23.166,20.103-23.166h32.329c12.243,0,22.29,9.18,22.29,23.166
					v14.658c0,17.738,9.899,26.423,28.894,26.423h21.71c18.055,0,25.78-10.271,25.78-27.32v-15.746
					c0-15.327-12.044-29.719-29.748-29.719h-18.728c-14.853,0-22.611-7.924-22.611-24.968V114.123z"/>
				<path fill="#042335" d="M-730.581,353.869c1.775,0,3.214-1.44,3.214-3.214v-2.454c0-1.775-1.439-3.215-3.214-3.215h-2.454
					c-1.774,0-3.214,1.44-3.214,3.215v2.454c0,1.775,1.44,3.214,3.214,3.214H-730.581z"/>
			</g>
		</g>
	</g>
</g>
<image overflow="visible" width="5472" height="3648"  transform="matrix(0.0886 0 0 0.0886 -92.5 272)">
</image>
<rect x="-95.5" y="273" opacity="0.4" fill="#D50032" width="488.667" height="323.167"/>
<g>
	<g>
		<g>
			<path fill="#FFFFFF" d="M103.299,486.61c0,0.9-0.324,1.61-0.972,2.128c-0.648,0.518-1.55,0.778-2.705,0.778
				c-1.064,0-2.005-0.2-2.824-0.6v-1.964c0.673,0.3,1.243,0.512,1.709,0.634c0.466,0.123,0.892,0.184,1.279,0.184
				c0.464,0,0.82-0.089,1.068-0.266c0.248-0.177,0.372-0.441,0.372-0.791c0-0.196-0.055-0.369-0.164-0.522
				c-0.109-0.152-0.269-0.299-0.481-0.44c-0.211-0.141-0.642-0.366-1.293-0.675c-0.609-0.286-1.066-0.562-1.371-0.825
				c-0.305-0.264-0.548-0.571-0.73-0.921c-0.182-0.35-0.273-0.759-0.273-1.228c0-0.882,0.299-1.576,0.897-2.08
				c0.598-0.505,1.424-0.757,2.479-0.757c0.518,0,1.013,0.061,1.484,0.184s0.963,0.296,1.477,0.518l-0.682,1.644
				c-0.532-0.218-0.972-0.371-1.32-0.457s-0.69-0.13-1.027-0.13c-0.4,0-0.707,0.093-0.921,0.28c-0.214,0.186-0.321,0.43-0.321,0.73
				c0,0.186,0.043,0.349,0.13,0.488s0.224,0.273,0.413,0.402c0.189,0.13,0.635,0.363,1.34,0.699c0.932,0.446,1.571,0.892,1.917,1.34
				C103.126,485.411,103.299,485.96,103.299,486.61z"/>
			<path fill="#FFFFFF" d="M118.883,489.38h-2.115v-8.213h-2.708v-1.76h7.531v1.76h-2.708L118.883,489.38z"/>
			<path fill="#FFFFFF" d="M142.136,479.407v6.453c0,0.737-0.165,1.382-0.495,1.937c-0.33,0.555-0.806,0.98-1.429,1.276
				s-1.36,0.443-2.21,0.443c-1.282,0-2.278-0.329-2.988-0.986s-1.064-1.556-1.064-2.698v-6.425h2.108v6.105
				c0,0.768,0.155,1.332,0.464,1.692c0.309,0.359,0.821,0.539,1.535,0.539c0.691,0,1.193-0.181,1.504-0.542
				c0.312-0.362,0.467-0.929,0.467-1.702v-6.091L142.136,479.407z"/>
			<path fill="#FFFFFF" d="M164.625,484.298c0,1.642-0.467,2.899-1.402,3.772c-0.934,0.873-2.284,1.31-4.048,1.31h-2.824v-9.972
				h3.131c1.628,0,2.892,0.43,3.793,1.289C164.175,481.556,164.625,482.756,164.625,484.298L164.625,484.298z M162.428,484.352
				c0-2.142-0.946-3.213-2.838-3.213h-1.125v6.494h0.907C161.41,487.633,162.428,486.54,162.428,484.352z"/>
			<path fill="#FFFFFF" d="M180.235,489.38h-4.536v-1.201l1.214-0.559v-6.453l-1.214-0.559v-1.201h4.536v1.201l-1.214,0.559v6.453
				l1.214,0.559V489.38z"/>
			<path fill="#FFFFFF" d="M201.202,484.38c0,1.651-0.409,2.919-1.228,3.806s-1.992,1.33-3.52,1.33c-1.528,0-2.701-0.443-3.52-1.33
				c-0.819-0.887-1.228-2.16-1.228-3.82c0-1.66,0.41-2.927,1.231-3.803c0.821-0.875,1.997-1.313,3.53-1.313
				c1.532,0,2.705,0.441,3.516,1.323C200.796,481.456,201.202,482.724,201.202,484.38L201.202,484.38z M193.924,484.38
				c0,1.114,0.211,1.953,0.634,2.517c0.423,0.564,1.055,0.846,1.896,0.846c1.687,0,2.531-1.121,2.531-3.363
				c0-2.246-0.839-3.37-2.517-3.37c-0.841,0-1.476,0.283-1.903,0.849C194.137,482.425,193.924,483.266,193.924,484.38z"/>
		</g>
		<g>
			<path fill="#FFFFFF" d="M96.123,474.874h-5.804v-25.867c1.015-3.046,2.95-5.314,5.804-6.802V474.874z M90.319,436.296h5.804
				v4.149c-2.346,1.033-4.281,2.609-5.804,4.727v0.184V436.296z"/>
			<path fill="#FFFFFF" d="M116.58,436.296v5.856l-1.733,4.333c-1.191-1.926-2.696-3.379-4.517-4.359l-10.741,0.026v-5.856H116.58z
				 M106.47,467.547h-6.303l9.585-23.977l0.578,0.315c1.681,1.068,2.959,2.504,3.834,4.307L106.47,467.547z M116.58,469.096v5.777
				H99.589v-5.777H116.58z"/>
			<path fill="#FFFFFF" d="M132.18,444.962c0-0.928-0.324-1.716-0.972-2.364c-0.648-0.648-1.436-0.972-2.364-0.972
				c-0.91,0-1.698,0.324-2.364,0.972c-0.648,0.648-0.972,1.436-0.972,2.364v6.355c-2.293,1.015-4.184,2.539-5.672,4.569v-10.82
				c0-2.574,0.902-4.753,2.705-6.539c1.786-1.803,3.948-2.705,6.487-2.705c2.556,0,4.727,0.902,6.513,2.705
				c1.803,1.803,2.705,3.983,2.705,6.539v21.035c0,0.595-0.053,1.164-0.158,1.707h-6.408c0.333-0.525,0.499-1.112,0.499-1.76
				L132.18,444.962z M137.695,469.359c-0.455,1.208-1.173,2.302-2.153,3.283c-1.803,1.803-3.974,2.705-6.513,2.705
				c-2.574,0-4.753-0.902-6.539-2.705c-1.768-1.803-2.652-3.983-2.652-6.539v-6.592c1.033-2.854,2.924-4.998,5.672-6.434v12.973
				c0,0.91,0.324,1.689,0.972,2.337c0.63,0.613,1.366,0.937,2.206,0.972h0.026h0.131h0.158L137.695,469.359z"/>
			<path fill="#FFFFFF" d="M154.344,445.592c0-2.241-1.112-3.361-3.335-3.361h-3.519c-2.346,1.033-4.281,2.617-5.804,4.753v0.158
				v-10.846h9.191c3.239,0,5.62,0.893,7.143,2.679c1.331,1.558,1.996,3.738,1.996,6.539v5.594c0,2.731-1.042,5.042-3.125,6.933
				l1.576,6.145c-1.943-1.646-4.298-2.924-7.064-3.834h-3.913v14.522h-5.804v-24.082c1.033-3.029,2.968-5.296,5.804-6.802v10.583
				h3.519c0.928,0,1.716-0.324,2.364-0.972c0.648-0.648,0.972-1.436,0.972-2.364L154.344,445.592z M161.198,474.874h-6.25
				l-3.073-12.579c3.939,1.628,6.592,4.035,7.957,7.222L161.198,474.874z"/>
			<path fill="#FFFFFF" d="M171.073,465.971l-1.418,8.903h-6.066l3.545-20.93c1.173-3.099,3.405-5.41,6.697-6.933l-1.865,13.288
				h4.307l-2.18-15.153c-2.416,0.893-4.456,2.206-6.119,3.939l2.18-12.789h7.983l5.777,34.481c-1.873-1.926-4.132-3.528-6.775-4.806
				H171.073z M178.505,474.874l-1.077-6.986c3.361,1.873,5.751,4.202,7.169,6.986H178.505z"/>
			<path fill="#FFFFFF" d="M194.156,436.27l7.721,25.867v0.026l0,0l0,0l0,0c2.311-2.486,4.246-5.322,5.804-8.509v21.219h-6.25
				l-7.983-24.712l0,0c-2.346,2.381-4.289,5.112-5.83,8.194V436.27H194.156z M201.877,436.27h5.804v13.314
				c-1.12,3.764-3.055,7.248-5.804,10.452V436.27z M193.447,474.874h-5.83v-12.185c1.085-3.572,3.029-6.907,5.83-10.006V474.874z"/>
		</g>
		<g>
			<g>
				<path fill="#FFFFFF" d="M137.042,369.518c-2.236,0-4.239,1.422-4.239,4.544v3.104c0,2.316,1.055,3.393,3.075,3.393h2.546
					c2.409,0,4.045,1.957,4.045,4.041v3.224c0,2.084-1.637,4.04-4.045,4.04h-2.546c-2.02,0-3.075,1.076-3.075,3.393v1.509
					c0,3.122,2.003,4.811,4.239,4.811h2.778c2.079,0,3.148,0.89,3.148,2.792v1.896c0.114,2.934,2.058,4.279,4.226,4.279h2.779
					c2.079,0,3.149,0.891,3.149,2.793v3.834c0,1.426-0.794,2.496-2.517,2.496h-5.259c-1.705,0-2.43-0.79-2.43-2.569v-2.247
					c0-2.027-1.552-3.929-3.852-4.031l0.02-0.022h-3.891c-1.704,0-2.43-0.79-2.43-2.569v-2.345c0-2.084-1.637-4.041-4.044-4.041
					h-2.546c-2.02,0-3.075-1.076-3.075-3.393v-2.228c0-3.124-2.003-4.092-4.238-4.092h-3.744c-2.079,0-3.148-0.89-3.148-2.792
					v-6.249c0-1.901,1.07-2.792,3.148-2.792h3.744c2.235,0,4.238-1.689,4.238-4.812v-2.836c0-2.317,1.054-3.393,3.075-3.393h2.546
					c2.409,0,4.044-1.957,4.044-4.04v-2.317c0-1.78,0.726-2.569,2.43-2.569h3.874c2.299-0.102,3.852-2.003,3.852-4.031v-2.248
					c0-1.78,0.725-2.569,2.43-2.569h5.26c1.723,0,2.516,1.07,2.516,2.496v3.834c0,1.901-1.069,2.792-3.15,2.792h-2.778
					c-2.174,0-4.124,1.352-4.229,4.302v1.823c0,1.901-1.069,2.792-3.148,2.792L137.042,369.518z"/>
				<path fill="#FFFFFF" d="M154.91,385.381c0-3.122-2.003-4.812-4.239-4.809h-3.743c-2.081,0-3.15-0.891-3.15-2.793v-5.763
					c0-1.426,0.793-2.496,2.516-2.496h3.127c2.971,0,4.519-0.891,4.519-3.683v-1.658c0-2.028,1.099-3.214,3.346-3.214h4.607
					c2.201,0,3.517,1.001,3.517,3.433v1.4c0,2.141,1.468,3.482,4.525,3.482h2.707c1.604,0,2.852,0.713,2.852,2.792v3.924
					c0,1.663-0.535,3.148-2.733,3.148h-4.395c-1.664,0-3.03-1.247-3.03-3.148v-1.993c0-2.412-1.347-3.592-3.929-3.592h-2.951
					c-2.455,0-3.506,1.396-3.506,3.714v2.141c0,2.083,1.637,4.039,4.044,4.039h2.546c2.02,0,3.075,1.077,3.075,3.395v1.84
					c0,3.122,2.003,4.812,4.238,4.812h3.744c2.079,0,3.148,0.891,3.148,2.792v5.764c0,1.426-0.793,2.496-2.517,2.496h-3.125
					c-2.971,0-4.519,0.891-4.519,3.683v1.659c0,2.027-1.099,3.213-3.346,3.213h-4.539c-2.201,0-3.585-0.922-3.585-3.355v-1.479
					c0-2.141-1.468-3.482-4.525-3.482h-2.707c-1.604,0-2.852-0.713-2.852-2.793v-3.924c0-1.664,0.535-3.15,2.733-3.15h4.395
					c1.664,0,3.03,1.248,3.03,3.15v1.993c0,2.412,1.346,3.592,3.928,3.592h2.952c2.455,0,3.505-1.396,3.505-3.714v-2.141
					c0-2.084-1.637-4.04-4.044-4.04h-2.546c-2.019,0-3.074-1.077-3.074-3.395V385.381z"/>
				<path fill="#FFFFFF" d="M182.781,390.402c1.796,0,3.252-1.457,3.252-3.252v-2.483c0-1.796-1.456-3.253-3.252-3.253h-2.483
					c-1.795,0-3.252,1.457-3.252,3.253v2.483c0,1.796,1.457,3.252,3.252,3.252H182.781z"/>
			</g>
		</g>
	</g>
</g>
</svg>